<svg width="357" height="151" viewBox="0 0 357 151" fill="none" xmlns="http://www.w3.org/2000/svg">
<g opacity="0.75">
<path d="M1 94.5V130.5H357V90.5C327 91.5 281.5 67 218.5 85.5C155.5 104 173.5 81 104 92C48.4 100.8 12.1667 97.3333 1 94.5Z" fill="#7BD6F5"/>
<path d="M296.187 73.3836L306.29 76.246L290.505 112.698L272.924 97.7132L296.187 73.3836Z" fill="#2F4859"/>
<path d="M313.025 78.1542L306.29 76.2459L284.612 111.029L297.843 115.687L313.025 78.1542Z" fill="#D9D9D9"/>
<path d="M276.628 142.416L286.73 145.278L292.413 105.964L269.584 109.499L276.628 142.416Z" fill="#2F4859"/>
<path d="M293.465 147.187L286.73 145.278L286.52 104.294L300.228 107.268L293.465 147.187Z" fill="#D9D9D9"/>
<path d="M176.391 33.9837L179.015 24.7232C179.412 23.3201 179.366 20.2754 175.998 19.3213" stroke="white" stroke-width="3.5"/>
<path d="M175.998 19.3213L169.263 17.413" stroke="white" stroke-width="3.5"/>
<rect width="120.75" height="43.75" transform="matrix(-0.962125 -0.272609 -0.272609 0.962125 263.271 80.4268)" fill="#64798A"/>
<ellipse cx="55.125" cy="21.875" rx="55.125" ry="21.875" transform="matrix(-0.962125 -0.272609 -0.272609 0.962125 313.782 94.7388)" fill="#64798A"/>
<ellipse cx="55.125" cy="21.875" rx="55.125" ry="21.875" transform="matrix(-0.962125 -0.272609 -0.272609 0.962125 204.341 63.7295)" fill="#64798A"/>
<path fill-rule="evenodd" clip-rule="evenodd" d="M307.58 116.627C303.411 127.222 278.953 129.766 251.392 122.508L251.386 122.532L248.86 121.816L139.418 90.8068L135.209 89.6141L135.228 89.5488C108.835 81.1746 90.1809 66.5628 92.1476 55.5864L307.58 116.627Z" fill="#3A556A"/>
<circle cx="10.5" cy="10.5" r="10.5" transform="matrix(-0.962125 -0.272609 -0.272609 0.962125 242.365 83.5978)" fill="#D5D6DB"/>
<circle cx="7" cy="7" r="7" transform="matrix(-0.962125 -0.272609 -0.272609 0.962125 238.043 86.0111)" fill="#2D93BA"/>
<circle cx="10.5" cy="10.5" r="10.5" transform="matrix(-0.962125 -0.272609 -0.272609 0.962125 215.425 75.9647)" fill="#D5D6DB"/>
<circle cx="7" cy="7" r="7" transform="matrix(-0.962125 -0.272609 -0.272609 0.962125 211.103 78.3781)" fill="#2D93BA"/>
<path d="M147.094 47.5093L197.606 61.8213L190.788 45.3385L158.886 36.2994L147.094 47.5093Z" fill="#2F4859"/>
<path d="M186.732 36.0041L190.478 45.2506L159.329 36.4248L165.685 30.0408L186.732 36.0041Z" fill="#64798A" stroke="#64798A" stroke-width="0.5"/>
<path d="M0 101V131L356.5 131V95.0001C300.5 82 284 112 238.5 108C193 104 153 88.5001 101 104C59.4 116.4 16.3333 107.167 0 101Z" fill="#27AAF2"/>
<path d="M0.5 105.5V130.5L357 130.5V113.5C354.5 111.5 314 99.5 291.5 104C269 108.5 216 117.5 195 113.5C174 109.5 132.5 105.5 103 113.5C73.5 121.5 51 120 33 113.5C18.6 108.3 5.33333 106 0.5 105.5Z" fill="#066EC7"/>
<path d="M0 116.5V150.5H357V126C353.5 126 323.5 124 312.5 121C301.5 118 274.5 114.5 261 114.5C247.5 114.5 185 126 169 126C153 126 111 116.5 102 116.5C93 116.5 59 124 43.5 126C31.1 127.6 9.33333 120.333 0 116.5Z" fill="#034798"/>
</g>
</svg>
