<svg width="30" height="30" viewBox="0 0 30 30" fill="none" xmlns="http://www.w3.org/2000/svg">
<rect width="30" height="30" rx="7" fill="#1E1E1E"/>
<path d="M2.70498 4.09878C2.14658 4.09413 1.92121 4.19869 2.02422 4.64789C2.22326 5.51763 3.03182 6.03344 4.4073 6.03886C6.78031 6.04893 3.78616 6.04428 6.15995 6.03034C7.44482 6.02259 7.70659 6.00788 7.70891 5.05991C7.71279 4.11272 7.45101 4.11272 6.15608 4.11195" fill="white"/>
<path d="M8.00853 12.0553C8.00853 9.64441 8.02084 7.23269 8.00011 4.82177C7.99493 4.17722 8.16981 3.98456 8.70222 4.00121C10.2334 4.04561 11.7659 4.03055 13.2983 4.00042C13.8048 3.99011 14.0244 4.16691 13.9979 4.83128C13.9441 6.18857 14.1825 6.11325 12.933 6.12118C12.5153 6.12356 12.0891 6.03476 11.6797 6.1743C10.7839 6.48032 10.2353 7.38412 10.234 8.56223C10.2289 11.5321 10.2321 14.5011 10.2353 17.471C10.236 18.944 9.61678 19.8716 8.58888 19.9905C8.16592 20.0389 8.00205 19.9128 8.00659 19.3539C8.02732 16.9216 8.01566 14.4885 8.01566 12.0538C8.01307 12.0553 8.01112 12.0553 8.00853 12.0553Z" fill="#25AEF2"/>
<path d="M14.0072 20.3238C14.0072 18.7578 14.0204 17.1879 14.0002 15.6196C13.9933 15.0612 14.1373 14.8358 14.7577 14.9396C15.9558 15.1386 16.6668 15.9472 16.6753 17.3226C16.6892 19.6949 16.683 22.0702 16.6645 24.4425C16.6536 25.7273 16.6335 25.7273 15.3262 25.7304C14.0204 25.7343 14.0196 25.7343 14.0196 24.4386C14.0196 23.067 14.0196 21.6946 14.0196 20.3238C14.015 20.3238 14.0111 20.3238 14.0072 20.3238Z" fill="white"/>
<path d="M17.0339 12.5294C17.0339 12.5294 21.893 12.5294 23.2724 13.822C24.2467 14.7351 24.5472 15.1069 24.7965 17.3598C25.0459 19.6112 23.9957 21.8681 22.5521 22.4784C21.1085 23.0887 20.1458 23.115 19.1707 24.7523C18.1956 26.3887 21.0155 25.8055 22.0804 25.5887C23.1453 25.3726 26.9573 24.1249 27.6714 19.5036C28.3855 14.8815 26.2913 12.3164 23.6898 10.8999C21.0883 9.48334 15.9922 10.185 15.2185 10.1006C14.4448 10.0162 14.0916 10.137 14.0746 11.662C14.0746 11.662 14.0212 12.3567 14.2628 12.5301C14.5044 12.7036 17.0339 12.5294 17.0339 12.5294Z" fill="#25AEF2"/>
</svg>
