<svg width="301" height="197" viewBox="0 0 301 197" fill="none" xmlns="http://www.w3.org/2000/svg">
<path d="M147 2.14556C117 -7.45444 111.167 17.4789 112 31.1456C68.0001 5.14562 35.5 47.6455 47 84.1455C58.5 120.646 113.5 126.646 134 156.146C121 143.646 75.5 129.646 45 124.146C20.6 119.746 4.83333 98.3122 0 88.1455V100.646C5.66667 108.479 22.6 125.446 45 130.646C71.5 128.646 130 160.146 147 168.646C153.5 161.646 140 139.646 104 126.646C68 113.646 43 82.1455 63 49.6455C83 17.1455 117 38.1455 124.5 38.1455C124.5 12.1455 140.5 11.1455 152 11.1455C180 50.3455 140.333 98.8122 117 118.146C118.333 119.146 122.4 121.746 128 124.146C195 90.6455 184.5 14.1456 147 2.14556Z" fill="#D12020"/>
<path d="M183 152.646L193 145.646C135.5 133.146 138 38.1455 158 35.6455C178 33.1455 184.5 45.6455 186 69.1455C219 46.6455 251 60.2948 253.5 98.1455C255.5 128.426 200.333 160.762 172.5 173.146C165.167 179.479 153.7 193.046 166.5 196.646L166.524 196.612C170.525 191.112 176.592 182.768 222 172.146C258.4 163.63 289.5 145.598 300.5 137.646V127.646C284.5 150.846 241.5 163.979 222 167.646C214.667 168.146 195 172.046 175 183.646C184 165.146 200 164.146 218.5 152.646C276.1 124.246 268.167 83.8122 257 67.1455C251.5 57.8122 231.9 42.9455 197.5 58.1456C192.5 12.6456 145.5 28.1456 138 51.1456C122 110.346 161.333 143.479 183 152.646Z" fill="#FF695E"/>
</svg>
