<svg width="291" height="112" viewBox="0 0 291 112" fill="none" xmlns="http://www.w3.org/2000/svg">
<path d="M0 95.2158L51.621 50.3517L56.2754 66.8535C88.4932 60.2245 176.442 30.0549 178.135 20.7462C177.712 15.6687 165.864 -0.833153 121.013 4.24432C173.057 -9.29559 187.02 13.5531 190.405 17.3612C193.79 21.1692 195.906 36.3886 192.098 41.4661C188.29 46.5435 148.093 69.3922 129.899 76.1622C111.705 82.9322 71.9309 94.3696 62.6222 97.3183L64.3147 111.705L0 95.2158Z" fill="#4EC9B0"/>
<g style="mix-blend-mode:multiply">
<path d="M290.601 95.2158L238.979 50.3517L234.325 66.8535C202.107 60.2245 114.158 30.0549 112.466 20.7462C112.889 15.6687 124.736 -0.833153 169.587 4.24432C117.543 -9.29559 103.58 13.5531 100.195 17.3612C96.8101 21.1692 94.6945 36.3886 98.5026 41.4661C102.311 46.5435 142.507 69.3922 160.702 76.1622C178.896 82.9322 218.67 94.3696 227.978 97.3183L226.286 111.705L290.601 95.2158Z" fill="#25AEF2"/>
</g>
</svg>
