<svg width="41" height="76" viewBox="0 0 41 76" fill="none" xmlns="http://www.w3.org/2000/svg">
<path d="M-2.62268e-07 63L0 69L22.5 66L17 54L-2.62268e-07 63Z" fill="#2F4859"/>
<path d="M0 73L-1.74846e-07 69L22.5 62.5L23 70.5L0 73Z" fill="#D9D9D9"/>
<path d="M41 63L41 69L18.5 66L24 54L41 63Z" fill="#2F4859"/>
<path d="M41 73L41 69L18.5 62.5L18 70.5L41 73Z" fill="#D9D9D9"/>
<rect x="9" y="46" width="16" height="25" transform="rotate(-90 9 46)" fill="#64798A"/>
<ellipse cx="21.5" cy="44.5" rx="31.5" ry="12.5" transform="rotate(-90 21.5 44.5)" fill="#64798A"/>
<ellipse cx="21.5" cy="31.5" rx="31.5" ry="12.5" transform="rotate(-90 21.5 31.5)" fill="#64798A"/>
<path fill-rule="evenodd" clip-rule="evenodd" d="M22 76C28.4741 75.3582 33.6832 62.308 33.9861 46.0247L34 46.0247L34 44.5247L34 31.5247L34 30.0247L33.9861 30.0247C33.6831 13.7414 28.4741 0.691269 22 0.0494843L22 76Z" fill="#3A556A"/>
<ellipse cx="21.7632" cy="28" rx="3.76316" ry="11" fill="#2F4859"/>
<rect x="20" y="24" width="3" height="8" rx="1.5" fill="#D9D9D9"/>
</svg>
