<svg width="41" height="76" viewBox="0 0 41 76" fill="none" xmlns="http://www.w3.org/2000/svg">
<path d="M-2.62268e-07 13L0 7L22.5 10L17 22L-2.62268e-07 13Z" fill="#2F4859"/>
<path d="M0 3L-1.74846e-07 7L22.5 13.5L23 5.5L0 3Z" fill="#D9D9D9"/>
<path d="M41 13L41 7L18.5 10L24 22L41 13Z" fill="#2F4859"/>
<path d="M41 3L41 7L18.5 13.5L18 5.5L41 3Z" fill="#D9D9D9"/>
<rect width="16" height="25" transform="matrix(-4.37114e-08 1 1 4.37114e-08 9 30)" fill="#64798A"/>
<ellipse cx="31.5" cy="12.5" rx="31.5" ry="12.5" transform="matrix(-4.37114e-08 1 1 4.37114e-08 9 0)" fill="#64798A"/>
<ellipse cx="31.5" cy="12.5" rx="31.5" ry="12.5" transform="matrix(-4.37114e-08 1 1 4.37114e-08 9 13)" fill="#64798A"/>
<path fill-rule="evenodd" clip-rule="evenodd" d="M22 0C28.4741 0.641788 33.6832 13.692 33.9861 29.9753L34 29.9753L34 31.4753L34 44.4753L34 45.9753L33.9861 45.9753C33.6831 62.2586 28.4741 75.3087 22 75.9505L22 0Z" fill="#3A556A"/>
<ellipse cx="3.76316" cy="11" rx="3.76316" ry="11" transform="matrix(1 0 0 -1 18 59)" fill="#2F4859"/>
<rect width="3" height="8" rx="1.5" transform="matrix(1 0 0 -1 20 52)" fill="#D9D9D9"/>
</svg>
