<svg width="258" height="262" viewBox="0 0 258 262" fill="none" xmlns="http://www.w3.org/2000/svg">
<rect width="258" height="262" rx="52" fill="#3ACE00"/>
<path d="M40.3014 93.0069C18.7014 147.807 68.3014 179.84 95.8014 189.007C107.995 194.007 120.403 189.914 122.302 197.507C125.302 209.507 117.064 222.215 125.302 219.507C161.802 207.507 241.802 160.507 219.302 93.0069C196.796 25.4903 67.3014 24.5069 40.3014 93.0069Z" fill="white"/>
<path d="M189 134.075H181.945L174.275 119.928L171.65 122.09V134.075H165.456V100.517H171.65V115.886C172.06 115.228 172.47 114.57 172.88 113.912C173.29 113.254 173.701 112.596 174.111 111.938L182.027 100.517H188.918L178.705 115.369L189 134.075Z" fill="#3ACE00"/>
<path d="M151.768 105.969C150.592 105.969 149.539 106.235 148.61 106.768C147.707 107.301 146.942 108.068 146.313 109.071C145.684 110.042 145.205 111.233 144.877 112.643C144.576 114.053 144.426 115.635 144.426 117.39C144.426 119.771 144.672 121.808 145.164 123.5C145.684 125.161 146.49 126.43 147.584 127.307C148.678 128.184 150.073 128.623 151.768 128.623C152.971 128.623 154.161 128.466 155.336 128.153C156.54 127.84 157.838 127.401 159.233 126.837V132.806C157.948 133.401 156.676 133.84 155.418 134.122C154.161 134.404 152.752 134.545 151.194 134.545C148.186 134.545 145.697 133.84 143.729 132.43C141.787 130.989 140.351 128.983 139.422 126.414C138.492 123.813 138.027 120.79 138.027 117.343C138.027 114.805 138.328 112.486 138.929 110.387C139.531 108.256 140.406 106.423 141.555 104.888C142.73 103.353 144.166 102.162 145.861 101.316C147.584 100.47 149.553 100.047 151.768 100.047C153.217 100.047 154.666 100.266 156.116 100.705C157.592 101.112 159.001 101.676 160.341 102.397L158.331 108.178C157.237 107.583 156.129 107.066 155.008 106.627C153.914 106.188 152.834 105.969 151.768 105.969Z" fill="#3ACE00"/>
<path d="M133.273 117.249C133.273 119.85 132.986 122.215 132.412 124.346C131.865 126.445 131.017 128.263 129.869 129.798C128.748 131.333 127.298 132.508 125.521 133.323C123.771 134.138 121.706 134.545 119.327 134.545C116.948 134.545 114.87 134.138 113.093 133.323C111.343 132.477 109.893 131.302 108.745 129.798C107.624 128.263 106.776 126.43 106.202 124.299C105.655 122.168 105.382 119.803 105.382 117.202C105.382 113.724 105.874 110.7 106.858 108.131C107.87 105.562 109.401 103.572 111.452 102.162C113.53 100.721 116.169 100 119.368 100C122.54 100 125.152 100.721 127.203 102.162C129.254 103.572 130.771 105.577 131.756 108.178C132.767 110.747 133.273 113.771 133.273 117.249ZM111.903 117.249C111.903 119.599 112.163 121.62 112.683 123.312C113.202 125.004 114.009 126.304 115.103 127.213C116.196 128.122 117.605 128.576 119.327 128.576C121.105 128.576 122.527 128.122 123.593 127.213C124.687 126.304 125.48 125.004 125.972 123.312C126.492 121.62 126.752 119.599 126.752 117.249C126.752 113.708 126.177 110.935 125.029 108.93C123.88 106.925 121.994 105.922 119.368 105.922C117.618 105.922 116.196 106.376 115.103 107.285C114.009 108.194 113.202 109.494 112.683 111.186C112.163 112.878 111.903 114.899 111.903 117.249Z" fill="#3ACE00"/>
<path d="M80.3872 134.075L73.3322 107.755H73.1682C73.1955 108.382 73.2365 109.322 73.2912 110.575C73.3459 111.828 73.4006 113.176 73.4553 114.617C73.51 116.027 73.5373 117.312 73.5373 118.471V134.075H68V100.517H76.4496L83.3815 126.179H83.5045L90.8466 100.517H99.2962V134.075H93.5127V118.189C93.5127 117.124 93.5264 115.902 93.5538 114.523C93.6085 113.144 93.6495 111.844 93.6768 110.622C93.7315 109.369 93.7725 108.429 93.7999 107.802H93.6358L86.0886 134.075H80.3872Z" fill="#3ACE00"/>
</svg>
