<svg width="128" height="54" viewBox="0 0 128 54" fill="none" xmlns="http://www.w3.org/2000/svg">
<path d="M115 13H121L118 35.5L106 30L115 13Z" fill="#2F4859"/>
<path d="M125 13H121L114.5 35.5L122.5 36L125 13Z" fill="#D9D9D9"/>
<path d="M115 54H121L118 31.5L106 37L115 54Z" fill="#2F4859"/>
<path d="M125 54H121L114.5 31.5L122.5 31L125 54Z" fill="#D9D9D9"/>
<path d="M43 10V4.5C43 3.66667 42.5 2 40.5 2" stroke="#D5D6DB" stroke-width="3.5"/>
<path d="M40.5 2H36.5" stroke="#D5D6DB" stroke-width="3.5"/>
<rect width="69" height="25" transform="matrix(-1 0 0 1 98 22)" fill="#64798A"/>
<ellipse cx="31.5" cy="12.5" rx="31.5" ry="12.5" transform="matrix(-1 0 0 1 128 22)" fill="#64798A"/>
<ellipse cx="31.5" cy="12.5" rx="31.5" ry="12.5" transform="matrix(-1 0 0 1 63 22)" fill="#64798A"/>
<path fill-rule="evenodd" clip-rule="evenodd" d="M128 35C127.358 41.4741 114.308 46.6832 98.0247 46.9861V47H96.5247H31.5247H29.0247V46.9612C13.2102 46.4685 0.678075 41.341 0.0494816 35H128Z" fill="#3A556A"/>
<circle cx="6" cy="6" r="6" transform="matrix(-1 0 0 1 87 27)" fill="#D5D6DB"/>
<circle cx="4" cy="4" r="4" transform="matrix(-1 0 0 1 85 29)" fill="#2D93BA"/>
<circle cx="6" cy="6" r="6" transform="matrix(-1 0 0 1 71 27)" fill="#D5D6DB"/>
<circle cx="4" cy="4" r="4" transform="matrix(-1 0 0 1 69 29)" fill="#2D93BA"/>
<path d="M29 22H59L52.6842 14H33.7368L29 22Z" fill="#2F4859"/>
<path d="M49 9.5L52.5 14H34L36.5 9.5H49Z" fill="#64798A" stroke="#64798A" stroke-width="0.5"/>
</svg>
